PathFileType	4	(X/Y/Z)	/Users/itak/Documents/Research/Walk-IL/dataset/trc/00437_00167.trc
DataRate	CameraRate	NumFrames	NumMarkers	Units	OrigDataRate	OrigDataStartFrame	OrigNumFrames
100.000000	100.000000	4	53	mm	100.000000	138	553
Frame#	Time	RPSI			LPSI			L3			STRN			T10			C7			CLAV			RBAK			LBAK			LSHO			LUPA			LAEL			LAOL			LWTS			LWPS			LFRA			LIFD			LHPS			LHTS			RSHO			RUPA			RAEL			RAOL			RWTS			RWPS			RFRA			RIFD			RHTS			RHPS			RBHD			LFHD			RFHD			LBHD			LHIP			RHIP			RASI			LASI			LKNE			LTHI			LANK			LTIP			LTOE			LMT1			LMT5			LHEE			RKNE			RTHI			RANK			RTIP			RTOE			RMT1			RMT5			RHEE			
		X1	Y1	Z1	X2	Y2	Z2	X3	Y3	Z3	X4	Y4	Z4	X5	Y5	Z5	X6	Y6	Z6	X7	Y7	Z7	X8	Y8	Z8	X9	Y9	Z9	X10	Y10	Z10	X11	Y11	Z11	X12	Y12	Z12	X13	Y13	Z13	X14	Y14	Z14	X15	Y15	Z15	X16	Y16	Z16	X17	Y17	Z17	X18	Y18	Z18	X19	Y19	Z19	X20	Y20	Z20	X21	Y21	Z21	X22	Y22	Z22	X23	Y23	Z23	X24	Y24	Z24	X25	Y25	Z25	X26	Y26	Z26	X27	Y27	Z27	X28	Y28	Z28	X29	Y29	Z29	X30	Y30	Z30	X31	Y31	Z31	X32	Y32	Z32	X33	Y33	Z33	X34	Y34	Z34	X35	Y35	Z35	X36	Y36	Z36	X37	Y37	Z37	X38	Y38	Z38	X39	Y39	Z39	X40	Y40	Z40	X41	Y41	Z41	X42	Y42	Z42	X43	Y43	Z43	X44	Y44	Z44	X45	Y45	Z45	X46	Y46	Z46	X47	Y47	Z47	X48	Y48	Z48	X49	Y49	Z49	X50	Y50	Z50	X51	Y51	Z51	X52	Y52	Z52	X53	Y53	Z53	

139	1.38	-1136.517944335938	962.869384765625	-462.7511901855469	-1061.454833984375	965.7349853515625	-583.854248046875	-1094.51953125	1058.0986328125	-503.5717468261719	-848.4872436523438	1245.033325195312	-383.6068725585938	-1106.395629882812	1181.380493164062	-514.2437133789062	-1048.680541992188	1447.788940429688	-468.447021484375	-877.3243408203125	1359.881469726562	-401.2765808105469	-1148.98876953125	1329.1904296875	-414.9187622070312	-1035.601806640625	1404.248657226562	-571.9091796875	-906.7200927734375	1421.944702148438	-597.7792358398438	-877.65576171875	1305.656005859375	-694.798583984375	-850.0879516601562	1090.179565429688	-723.6410522460938	-951.8359985351562	1078.237670898438	-704.7880859375	-807.5005493164062	884.022216796875	-654.6435546875	-821.970458984375	871.597412109375	-726.615234375	-830.4398193359375	1002.031982421875	-726.1832275390625	-811.9632568359375	714.6956176757812	-661.1159057617188	-820.153076171875	790.03662109375	-724.5558471679688	-794.0745849609375	793.5064086914062	-658.5321044921875	-1055.704711914062	1413.792602539062	-294.2287902832031	-1108.018798828125	1355.004028320312	-235.3643798828125	-1155.692504882812	1073.981689453125	-181.7512054443359	-1189.991943359375	1059.285766601562	-238.6586151123047	-1054.113159179688	868.4566650390625	-181.1746063232422	-1137.354858398438	856.5595092773438	-154.7156677246094	-1159.120483398438	1015.683715820312	-170.7299652099609	-1062.166870117188	709.2785034179688	-174.0425109863281	-1049.172607421875	768.2003173828125	-163.7673034667969	-1123.470336914062	769.4342651367188	-148.8778686523438	-1030.03125	1636.67333984375	-365.4482421875	-838.4058227539062	1671.503295898438	-436.5972595214844	-902.491943359375	1669.728515625	-322.5206604003906	-957.3310546875	1642.638793945312	-528.0657348632812	-887.2735595703125	854.3990478515625	-617.1492919921875	-1110.098510742188	852.7782592773438	-283.8464660644531	-988.4404907226562	891.5385131835938	-287.6454467773438	-842.4815673828125	889.57763671875	-499.2314453125	-932.134033203125	431.1266479492188	-562.615966796875	-891.593994140625	581.8890380859375	-577.537353515625	-1046.87744140625	31.59726715087891	-598.986328125	-955.30126953125	275.4378662109375	-571.4682006835938	-908.6599731445312	46.31821441650391	-410.3044738769531	-983.031005859375	50.12557601928711	-432.5123901367188	-919.7753295898438	50.35060882568359	-524.406494140625	-1120.643188476562	33.2506103515625	-590.8557739257812	-1061.04150390625	459.3404235839844	-277.2757873535156	-1072.666381835938	719.2343139648438	-248.06494140625	-1185.708984375	51.48009872436523	-350.2361755371094	-1104.970336914062	320.89990234375	-286.5169372558594	-979.9877319335938	47.46535491943359	-284.6448364257812	-1015.587951660156	55.15488815307617	-345.1002502441406	-1085.392578125	44.97552108764648	-262.3472900390625	-1219.561645507812	54.29474639892578	-424.432373046875	
140	1.39	-1135.701904296875	961.9371337890625	-463.1054382324219	-1060.4755859375	965.3221435546875	-584.1986694335938	-1093.491455078125	1057.971557617188	-504.0584716796875	-846.7630615234375	1244.488403320312	-383.5516662597656	-1104.585571289062	1181.352661132812	-514.451904296875	-1046.5849609375	1447.572631835938	-468.1568603515625	-875.4141845703125	1359.459350585938	-401.0538024902344	-1147.180419921875	1329.037231445312	-415.0651245117188	-1033.429443359375	1404.180786132812	-571.6904907226562	-904.5160522460938	1421.760131835938	-597.471435546875	-875.44580078125	1305.495727539062	-694.6152954101562	-848.11376953125	1089.956909179688	-723.5596313476562	-949.9486694335938	1078.187744140625	-704.954345703125	-806.2493286132812	883.5081787109375	-654.950927734375	-820.6350708007812	871.3160400390625	-727.0037841796875	-828.7330322265625	1001.747741699219	-726.267333984375	-810.9901123046875	714.23974609375	-661.862548828125	-818.9542236328125	789.7875366210938	-725.166259765625	-793.1177978515625	792.95068359375	-659.0699462890625	-1053.93603515625	1413.231811523438	-294.0484619140625	-1106.519409179688	1354.511108398438	-235.4732360839844	-1155.567626953125	1073.95849609375	-181.7417449951172	-1189.58935546875	1059.18212890625	-238.8290100097656	-1054.201171875	868.404296875	-180.1158599853516	-1137.588623046875	856.5960083007812	-154.0860595703125	-1159.133056640625	1015.682556152344	-170.5971374511719	-1062.28271484375	709.2685546875	-172.5074157714844	-1049.382446289062	768.225341796875	-162.3358917236328	-1123.755126953125	769.4846801757812	-147.8918762207031	-1027.949096679688	1636.189575195312	-364.8715515136719	-836.3898315429688	1671.237915039062	-436.1556701660156	-900.4375	1669.398681640625	-322.0238952636719	-955.34130859375	1642.21484375	-527.51513671875	-886.266845703125	854.0514526367188	-617.7593994140625	-1108.1640625	852.3416137695312	-283.7330017089844	-986.81396484375	891.5814208984375	-288.3031616210938	-841.2708129882812	889.2879028320312	-500.0207824707031	-931.2451171875	430.8047790527344	-562.7988891601562	-890.57763671875	581.5923461914062	-577.8809204101562	-1046.936645507812	31.53438377380371	-599.1185913085938	-954.9280395507812	275.0435791015625	-571.5542602539062	-908.816162109375	46.41452026367188	-410.3370361328125	-983.1469116210938	50.19117736816406	-432.6044311523438	-919.9009399414062	50.37879943847656	-524.436279296875	-1120.68115234375	33.08956909179688	-590.9855346679688	-1053.60205078125	460.3757019042969	-272.6006774902344	-1068.646484375	719.5394287109375	-246.9437408447266	-1184.771362304688	54.79590606689453	-349.9505615234375	-1099.873168945312	322.7775573730469	-283.3642883300781	-979.819580078125	47.13347244262695	-284.5796203613281	-1015.019470214844	55.17055130004883	-344.7165832519531	-1085.102783203125	44.84000015258789	-262.4673156738281	-1218.216796875	59.90000534057617	-424.1488952636719	
141	1.4	-1134.838745117188	961.1085205078125	-463.4493408203125	-1059.454223632812	964.970458984375	-584.525390625	-1092.39111328125	1057.90185546875	-504.5587158203125	-844.996826171875	1243.965087890625	-383.4161987304688	-1102.730346679688	1181.377197265625	-514.682861328125	-1044.410766601562	1447.388305664062	-467.8594970703125	-873.4458618164062	1359.058227539062	-400.7744750976562	-1145.31640625	1328.938354492188	-415.2458801269531	-1031.140258789062	1404.14306640625	-571.4523315429688	-902.1947021484375	1421.610717773438	-597.1080322265625	-873.1226196289062	1305.369750976562	-694.3834228515625	-846.0531616210938	1089.764892578125	-723.4203491210938	-947.9760131835938	1078.182373046875	-705.0699462890625	-804.93505859375	883.0380859375	-655.1651611328125	-819.2164306640625	871.0609741210938	-727.29345703125	-826.9404296875	1001.489807128906	-726.2796630859375	-809.9364624023438	713.8390502929688	-662.4871826171875	-817.6597900390625	789.5797729492188	-725.6678466796875	-792.081787109375	792.4359130859375	-659.4878540039062	-1052.157470703125	1412.7138671875	-293.8775939941406	-1105.030029296875	1354.066528320312	-235.595703125	-1155.424926757812	1073.976928710938	-181.7611846923828	-1189.146606445312	1059.120727539062	-239.0418395996094	-1054.314086914062	868.369140625	-179.0655212402344	-1137.86669921875	856.6687622070312	-153.4993133544922	-1159.130859375	1015.721740722656	-170.5091705322266	-1062.468627929688	709.2818603515625	-170.9587554931641	-1049.656494140625	768.2730102539062	-160.8898620605469	-1124.104858398438	769.5685424804688	-146.9270782470703	-1025.791381835938	1635.739013671875	-364.2418518066406	-834.2892456054688	1670.986083984375	-435.6510009765625	-898.3079223632812	1669.077514648438	-321.464111328125	-953.2579956054688	1641.836059570312	-526.9148559570312	-885.2952880859375	853.7175903320312	-618.3480834960938	-1106.234130859375	852.0398559570312	-283.5823364257812	-985.2008666992188	891.7537231445312	-288.9630126953125	-840.021484375	888.9940795898438	-500.7618103027344	-930.43408203125	430.4980773925781	-563.0435791015625	-889.6135864257812	581.3095092773438	-578.273681640625	-1046.99853515625	31.48772811889648	-599.2548828125	-954.607177734375	274.6802673339844	-571.6906127929688	-908.9395751953125	46.50895309448242	-410.4003601074219	-983.2267456054688	50.28068923950195	-432.7043151855469	-920.0046997070312	50.39015960693359	-524.4808349609375	-1120.718627929688	32.92104721069336	-591.1028442382812	-1045.597290039062	461.8178100585938	-267.4969482421875	-1064.421997070312	720.1031494140625	-245.6814880371094	-1183.574340820312	58.81517791748047	-349.5449829101562	-1094.2802734375	325.150146484375	-279.8347473144531	-979.6395874023438	46.73642349243164	-284.5216369628906	-1014.312194824219	55.28241348266602	-344.2982482910156	-1084.703247070312	44.83084869384766	-262.5968627929688	-1216.49365234375	66.43547821044922	-423.6930541992188	
142	1.41	-1133.921752929688	960.3749389648438	-463.7720336914062	-1058.392822265625	964.675537109375	-584.8255615234375	-1091.204345703125	1057.889282226562	-505.0648803710938	-843.1885986328125	1243.463500976562	-383.1881103515625	-1100.831909179688	1181.450927734375	-514.9356079101562	-1042.154541015625	1447.234619140625	-467.5518798828125	-871.4208374023438	1358.675903320312	-400.4244079589844	-1143.390869140625	1328.892944335938	-415.4550170898438	-1028.727416992188	1404.134765625	-571.1890869140625	-899.7464599609375	1421.497924804688	-596.6755981445312	-870.6727294921875	1305.285400390625	-694.0913696289062	-843.9044189453125	1089.609130859375	-723.2159423828125	-945.9148559570312	1078.230346679688	-705.1244506835938	-803.556640625	882.615478515625	-655.281005859375	-817.7199096679688	870.835693359375	-727.4823608398438	-825.0595703125	1001.265014648438	-726.2154541015625	-808.8155517578125	713.4965209960938	-662.9907836914062	-816.2930908203125	789.4116821289062	-726.05859375	-790.9678344726562	791.9666748046875	-659.7865600585938	-1050.367065429688	1412.246704101562	-293.7134094238281	-1103.547607421875	1353.6806640625	-235.72607421875	-1155.263305664062	1074.042846679688	-181.8154144287109	-1188.664184570312	1059.1103515625	-239.3009796142578	-1054.4609375	868.3516845703125	-178.028076171875	-1138.196899414062	856.780517578125	-152.96923828125	-1159.115844726562	1015.807189941406	-170.4731903076172	-1062.74365234375	709.3169555664062	-169.4179992675781	-1050.006958007812	768.3402099609375	-159.4472198486328	-1124.534790039062	769.6888427734375	-146.0051422119141	-1023.560363769531	1635.321166992188	-363.5578002929688	-832.1052856445312	1670.745971679688	-435.0763549804688	-896.1036376953125	1668.7646484375	-320.8386535644531	-951.082763671875	1641.498413085938	-526.26220703125	-884.3654174804688	853.4028930664062	-618.9127197265625	-1104.296508789062	851.8779296875	-283.3798217773438	-983.5958862304688	892.064697265625	-289.6111450195312	-838.7337646484375	888.6998291015625	-501.4448547363281	-929.7052612304688	430.2078247070312	-563.3421630859375	-888.7009887695312	581.0386352539062	-578.69970703125	-1047.065673828125	31.45717430114746	-599.39404296875	-954.3221435546875	274.3562622070312	-571.8727416992188	-909.03076171875	46.59637832641602	-410.4906921386719	-983.2674560546875	50.39147186279297	-432.8072814941406	-920.0857543945312	50.38671875	-524.5343627929688	-1120.759399414062	32.7515869140625	-591.2070922851562	-1037.035766601562	463.6881103515625	-261.9801940917969	-1059.984008789062	720.9500732421875	-244.2592620849609	-1182.064208984375	63.58592224121094	-348.9921569824219	-1088.1611328125	328.0259704589844	-275.9188537597656	-979.4226684570312	46.27904891967773	-284.4335021972656	-1013.429992675781	55.54467010498047	-343.8173522949219	-1084.162353515625	45.03917694091797	-262.7002868652344	-1214.324951171875	73.89157104492188	-423.0375061035156	
